<svg width="1386" height="802" viewBox="0 0 1386 802" fill="none" xmlns="http://www.w3.org/2000/svg">
<path d="M459.411 646.037L450.226 574.241L458.733 575.437L465.265 633.778L465.941 633.873L488.576 579.632L498.028 580.961L504.831 639.34L505.506 639.435L527.871 585.156L536.378 586.352L507.754 652.833L499.111 651.618L491.598 594.378L491.058 594.302L468.053 647.252L459.411 646.037ZM552.771 660.263C547.775 659.561 543.62 657.852 540.307 655.137C537.019 652.403 534.676 648.906 533.278 644.648C531.906 640.369 531.593 635.575 532.34 630.263C533.086 624.952 534.712 620.407 537.217 616.628C539.748 612.829 542.917 610.039 546.725 608.256C550.559 606.454 554.816 605.882 559.498 606.54C562.198 606.92 564.802 607.745 567.309 609.015C569.815 610.286 572.007 612.086 573.882 614.415C575.761 616.722 577.11 619.62 577.927 623.108C578.745 626.597 578.814 630.761 578.134 635.599L577.659 638.975L537.688 633.356L538.657 626.469L570.525 630.95C570.936 628.024 570.718 625.331 569.871 622.871C569.046 620.414 567.657 618.371 565.706 616.743C563.777 615.117 561.372 614.102 558.491 613.697C555.318 613.251 552.462 613.653 549.922 614.902C547.408 616.133 545.357 617.91 543.768 620.234C542.179 622.558 541.183 625.149 540.781 628.007L540.136 632.599C539.585 636.515 539.794 639.929 540.761 642.842C541.755 645.736 543.367 648.063 545.598 649.822C547.833 651.559 550.559 652.654 553.777 653.107C555.87 653.401 557.802 653.374 559.572 653.026C561.368 652.659 562.969 651.966 564.374 650.947C565.783 649.906 566.952 648.532 567.88 646.827L575.273 650.069C574.096 652.566 572.412 654.67 570.22 656.382C568.032 658.071 565.454 659.269 562.485 659.977C559.52 660.661 556.282 660.757 552.771 660.263ZM587.594 664.057L597.313 594.919L605.28 596.039L601.692 621.561L602.368 621.656C603.079 620.838 604.051 619.804 605.282 618.554C606.539 617.285 608.225 616.236 610.338 615.409C612.476 614.562 615.234 614.376 618.61 614.85C622.976 615.464 626.671 617.097 629.695 619.748C632.719 622.4 634.883 625.86 636.188 630.128C637.493 634.397 637.762 639.254 636.997 644.701C636.225 650.192 634.621 654.821 632.187 658.587C629.756 662.33 626.731 665.072 623.113 666.813C619.497 668.531 615.529 669.086 611.208 668.479C607.877 668.01 605.288 667.084 603.44 665.7C601.595 664.293 600.232 662.804 599.351 661.235C598.473 659.642 597.808 658.333 597.356 657.305L596.411 657.172L595.291 665.139L587.594 664.057ZM599.071 639.231C598.52 643.147 598.608 646.683 599.335 649.837C600.065 652.97 601.415 655.535 603.383 657.533C605.354 659.508 607.938 660.721 611.134 661.17C614.465 661.638 617.368 661.151 619.843 659.709C622.343 658.247 624.366 656.099 625.913 653.264C627.484 650.409 628.53 647.137 629.048 643.446C629.561 639.8 629.46 636.435 628.746 633.351C628.058 630.248 626.709 627.682 624.699 625.656C622.714 623.609 620.034 622.349 616.658 621.874C613.417 621.419 610.579 621.857 608.142 623.19C605.709 624.501 603.724 626.54 602.187 629.307C600.654 632.052 599.615 635.36 599.071 639.231Z" fill="#222222" fill-opacity="0.56"/>
<path d="M537.411 313.037L528.226 241.241L536.733 242.437L543.265 300.778L543.941 300.873L566.576 246.632L576.028 247.961L582.831 306.34L583.506 306.435L605.871 252.156L614.378 253.352L585.754 319.833L577.111 318.618L569.598 261.378L569.058 261.302L546.053 314.252L537.411 313.037ZM630.771 327.263C625.775 326.561 621.62 324.852 618.307 322.137C615.019 319.403 612.676 315.906 611.278 311.648C609.906 307.369 609.593 302.575 610.34 297.263C611.086 291.952 612.712 287.407 615.217 283.628C617.748 279.829 620.917 277.039 624.725 275.256C628.559 273.454 632.816 272.882 637.498 273.54C640.198 273.92 642.802 274.745 645.309 276.015C647.815 277.286 650.007 279.086 651.882 281.415C653.761 283.722 655.11 286.62 655.927 290.108C656.745 293.597 656.814 297.761 656.134 302.599L655.659 305.975L615.688 300.356L616.657 293.469L648.525 297.95C648.936 295.024 648.718 292.331 647.871 289.871C647.046 287.414 645.657 285.371 643.706 283.743C641.777 282.117 639.372 281.102 636.491 280.697C633.318 280.251 630.462 280.653 627.922 281.902C625.408 283.133 623.357 284.91 621.768 287.234C620.179 289.558 619.183 292.149 618.781 295.007L618.136 299.599C617.585 303.515 617.794 306.929 618.761 309.842C619.755 312.736 621.367 315.063 623.598 316.822C625.833 318.559 628.559 319.654 631.777 320.107C633.87 320.401 635.802 320.374 637.572 320.026C639.368 319.659 640.969 318.966 642.374 317.947C643.783 316.906 644.952 315.532 645.88 313.827L653.273 317.069C652.096 319.566 650.412 321.67 648.22 323.382C646.032 325.071 643.454 326.269 640.485 326.977C637.52 327.661 634.282 327.757 630.771 327.263ZM665.594 331.057L675.313 261.919L683.28 263.039L679.692 288.561L680.368 288.656C681.079 287.838 682.051 286.804 683.282 285.554C684.539 284.285 686.225 283.236 688.338 282.409C690.476 281.562 693.234 281.376 696.61 281.85C700.976 282.464 704.671 284.097 707.695 286.748C710.719 289.4 712.883 292.86 714.188 297.128C715.493 301.397 715.762 306.254 714.997 311.701C714.225 317.192 712.621 321.821 710.187 325.587C707.756 329.33 704.731 332.072 701.113 333.813C697.497 335.531 693.529 336.086 689.208 335.479C685.877 335.01 683.288 334.084 681.44 332.7C679.595 331.293 678.232 329.804 677.351 328.235C676.473 326.642 675.808 325.333 675.356 324.305L674.411 324.172L673.291 332.139L665.594 331.057ZM677.071 306.231C676.52 310.147 676.608 313.683 677.335 316.837C678.065 319.97 679.415 322.535 681.383 324.533C683.354 326.508 685.938 327.721 689.134 328.17C692.465 328.638 695.368 328.151 697.842 326.709C700.343 325.247 702.366 323.099 703.912 320.264C705.484 317.409 706.53 314.137 707.048 310.446C707.561 306.8 707.46 303.435 706.746 300.351C706.058 297.248 704.709 294.682 702.699 292.656C700.714 290.609 698.034 289.349 694.658 288.874C691.417 288.419 688.579 288.857 686.142 290.19C683.709 291.501 681.724 293.54 680.187 296.307C678.654 299.052 677.615 302.36 677.071 306.231Z" fill="#222222" fill-opacity="0.56"/>
<path d="M763.411 551.037L754.226 479.241L762.733 480.437L769.265 538.778L769.941 538.873L792.576 484.632L802.028 485.961L808.831 544.34L809.506 544.435L831.871 490.156L840.378 491.352L811.754 557.833L803.111 556.618L795.598 499.378L795.058 499.302L772.053 552.252L763.411 551.037ZM856.771 565.263C851.775 564.561 847.62 562.852 844.307 560.137C841.019 557.403 838.676 553.906 837.278 549.648C835.906 545.369 835.593 540.575 836.34 535.263C837.086 529.952 838.712 525.407 841.217 521.628C843.748 517.829 846.917 515.039 850.725 513.256C854.559 511.454 858.816 510.882 863.498 511.54C866.198 511.92 868.802 512.745 871.309 514.015C873.815 515.286 876.007 517.086 877.882 519.415C879.761 521.722 881.11 524.62 881.927 528.108C882.745 531.597 882.814 535.761 882.134 540.599L881.659 543.975L841.688 538.356L842.657 531.469L874.525 535.95C874.936 533.024 874.718 530.331 873.871 527.871C873.046 525.414 871.657 523.371 869.706 521.743C867.777 520.117 865.372 519.102 862.491 518.697C859.318 518.251 856.462 518.653 853.922 519.902C851.408 521.133 849.357 522.91 847.768 525.234C846.179 527.558 845.183 530.149 844.781 533.007L844.136 537.599C843.585 541.515 843.794 544.929 844.761 547.842C845.755 550.736 847.367 553.063 849.598 554.822C851.833 556.559 854.559 557.654 857.777 558.107C859.87 558.401 861.802 558.374 863.572 558.026C865.368 557.659 866.969 556.966 868.374 555.947C869.783 554.906 870.952 553.532 871.88 551.827L879.273 555.069C878.096 557.566 876.412 559.67 874.22 561.382C872.032 563.071 869.454 564.269 866.485 564.977C863.52 565.661 860.282 565.757 856.771 565.263ZM891.594 569.057L901.313 499.919L909.28 501.039L905.692 526.561L906.368 526.656C907.079 525.838 908.051 524.804 909.282 523.554C910.539 522.285 912.225 521.236 914.338 520.409C916.476 519.562 919.234 519.376 922.61 519.85C926.976 520.464 930.671 522.097 933.695 524.748C936.719 527.4 938.883 530.86 940.188 535.128C941.493 539.397 941.762 544.254 940.997 549.701C940.225 555.192 938.621 559.821 936.187 563.587C933.756 567.33 930.731 570.072 927.113 571.813C923.497 573.531 919.529 574.086 915.208 573.479C911.877 573.01 909.288 572.084 907.44 570.7C905.595 569.293 904.232 567.804 903.351 566.235C902.473 564.642 901.808 563.333 901.356 562.305L900.411 562.172L899.291 570.139L891.594 569.057ZM903.071 544.231C902.52 548.147 902.608 551.683 903.335 554.837C904.065 557.97 905.415 560.535 907.383 562.533C909.354 564.508 911.938 565.721 915.134 566.17C918.465 566.638 921.368 566.151 923.842 564.709C926.343 563.247 928.366 561.099 929.912 558.264C931.484 555.409 932.53 552.137 933.048 548.446C933.561 544.8 933.46 541.435 932.746 538.351C932.058 535.248 930.709 532.682 928.699 530.656C926.714 528.609 924.034 527.349 920.658 526.874C917.417 526.419 914.579 526.857 912.142 528.19C909.709 529.501 907.724 531.54 906.187 534.307C904.654 537.052 903.615 540.36 903.071 544.231Z" fill="#222222" fill-opacity="0.56"/>
<path d="M129.411 482.037L120.226 410.241L128.733 411.437L135.265 469.778L135.941 469.873L158.576 415.632L168.028 416.961L174.831 475.34L175.506 475.435L197.871 421.156L206.378 422.352L177.754 488.833L169.111 487.618L161.598 430.378L161.058 430.302L138.053 483.252L129.411 482.037ZM222.771 496.263C217.775 495.561 213.62 493.852 210.307 491.137C207.019 488.403 204.676 484.906 203.278 480.648C201.906 476.369 201.593 471.575 202.34 466.263C203.086 460.952 204.712 456.407 207.217 452.628C209.748 448.829 212.917 446.039 216.725 444.256C220.559 442.454 224.816 441.882 229.498 442.54C232.198 442.92 234.802 443.745 237.309 445.015C239.815 446.286 242.007 448.086 243.882 450.415C245.761 452.722 247.11 455.62 247.927 459.108C248.745 462.597 248.814 466.761 248.134 471.599L247.659 474.975L207.688 469.356L208.657 462.469L240.525 466.95C240.936 464.024 240.718 461.331 239.871 458.871C239.046 456.414 237.657 454.371 235.706 452.743C233.777 451.117 231.372 450.102 228.491 449.697C225.318 449.251 222.462 449.653 219.922 450.902C217.408 452.133 215.357 453.91 213.768 456.234C212.179 458.558 211.183 461.149 210.781 464.007L210.136 468.599C209.585 472.515 209.794 475.929 210.761 478.842C211.755 481.736 213.367 484.063 215.598 485.822C217.833 487.559 220.559 488.654 223.777 489.107C225.87 489.401 227.802 489.374 229.572 489.026C231.368 488.659 232.969 487.966 234.374 486.947C235.783 485.906 236.952 484.532 237.88 482.827L245.273 486.069C244.096 488.566 242.412 490.67 240.22 492.382C238.032 494.071 235.454 495.269 232.485 495.977C229.52 496.661 226.282 496.757 222.771 496.263ZM257.594 500.057L267.313 430.919L275.28 432.039L271.692 457.561L272.368 457.656C273.079 456.838 274.051 455.804 275.282 454.554C276.539 453.285 278.225 452.236 280.338 451.409C282.476 450.562 285.234 450.376 288.61 450.85C292.976 451.464 296.671 453.097 299.695 455.748C302.719 458.4 304.883 461.86 306.188 466.128C307.493 470.397 307.762 475.254 306.997 480.701C306.225 486.192 304.621 490.821 302.187 494.587C299.756 498.33 296.731 501.072 293.113 502.813C289.497 504.531 285.529 505.086 281.208 504.479C277.877 504.01 275.288 503.084 273.44 501.7C271.595 500.293 270.232 498.804 269.351 497.235C268.473 495.642 267.808 494.333 267.356 493.305L266.411 493.172L265.291 501.139L257.594 500.057ZM269.071 475.231C268.52 479.147 268.608 482.683 269.335 485.837C270.065 488.97 271.415 491.535 273.383 493.533C275.354 495.508 277.938 496.721 281.134 497.17C284.465 497.638 287.368 497.151 289.842 495.709C292.343 494.247 294.366 492.099 295.912 489.264C297.484 486.409 298.53 483.137 299.048 479.446C299.561 475.8 299.46 472.435 298.746 469.351C298.058 466.248 296.709 463.682 294.699 461.656C292.714 459.609 290.034 458.349 286.658 457.874C283.417 457.419 280.579 457.857 278.142 459.19C275.709 460.501 273.724 462.54 272.187 465.307C270.654 468.052 269.615 471.36 269.071 475.231Z" fill="#222222" fill-opacity="0.56"/>
<path d="M338.411 95.0369L329.226 23.2408L337.733 24.4368L344.265 82.778L344.941 82.8729L367.576 28.6322L377.028 29.9611L383.831 88.3402L384.506 88.4351L406.871 34.1565L415.378 35.3525L386.754 101.833L378.111 100.618L370.598 43.3783L370.058 43.3024L347.053 96.2518L338.411 95.0369ZM431.771 109.263C426.775 108.561 422.62 106.852 419.307 104.137C416.019 101.403 413.676 97.9064 412.278 93.6476C410.906 89.3695 410.593 84.5747 411.34 79.2633C412.086 73.9519 413.712 69.4067 416.217 65.6277C418.748 61.8294 421.917 59.0389 425.725 57.2562C429.559 55.4542 433.816 54.8822 438.498 55.5403C441.198 55.92 443.802 56.745 446.309 58.0154C448.815 59.2859 451.007 61.0857 452.882 63.415C454.761 65.7218 456.11 68.6195 456.927 72.1082C457.745 75.597 457.814 79.7607 457.134 84.5995L456.659 87.9754L416.688 82.3562L417.657 75.4694L449.525 79.9495C449.936 77.0238 449.718 74.3308 448.871 71.8707C448.046 69.4137 446.657 67.371 444.706 65.7426C442.777 64.1173 440.372 63.1022 437.491 62.6972C434.318 62.2511 431.462 62.6528 428.922 63.9023C426.408 65.1325 424.357 66.9097 422.768 69.2338C421.179 71.558 420.183 74.1492 419.781 77.0074L419.136 81.5986C418.585 85.5147 418.794 88.9292 419.761 91.8423C420.755 94.736 422.367 97.0626 424.598 98.8222C426.833 100.559 429.559 101.654 432.777 102.107C434.87 102.401 436.802 102.374 438.572 102.026C440.368 101.659 441.969 100.966 443.374 99.9471C444.783 98.9058 445.952 97.5324 446.88 95.8268L454.273 99.0694C453.096 101.566 451.412 103.67 449.22 105.382C447.032 107.071 444.454 108.269 441.485 108.977C438.52 109.661 435.282 109.757 431.771 109.263ZM466.594 113.057L476.313 43.9189L484.28 45.0389L480.692 70.5607L481.368 70.6556C482.079 69.8376 483.051 68.8037 484.282 67.5539C485.539 66.2847 487.225 65.2364 489.338 64.4089C491.476 63.562 494.234 63.3758 497.61 63.8504C501.976 64.4642 505.671 66.0968 508.695 68.7482C511.719 71.3995 513.883 74.8595 515.188 79.1282C516.493 83.3969 516.762 88.2544 515.997 93.7009C515.225 99.1923 513.621 103.821 511.187 107.587C508.756 111.33 505.731 114.072 502.113 115.813C498.497 117.531 494.529 118.086 490.208 117.479C486.877 117.01 484.288 116.084 482.44 114.7C480.595 113.293 479.232 111.804 478.351 110.235C477.473 108.642 476.808 107.333 476.356 106.305L475.411 106.172L474.291 114.139L466.594 113.057ZM478.071 88.2314C477.52 92.1474 477.608 95.6828 478.335 98.8374C479.065 101.97 480.415 104.535 482.383 106.533C484.354 108.508 486.938 109.721 490.134 110.17C493.465 110.638 496.368 110.151 498.843 108.709C501.343 107.247 503.366 105.099 504.913 102.264C506.484 99.4095 507.53 96.1368 508.048 92.4458C508.561 88.7998 508.46 85.4348 507.746 82.3509C507.058 79.2476 505.709 76.6825 503.699 74.6556C501.714 72.6094 499.034 71.349 495.658 70.8744C492.417 70.4188 489.579 70.8575 487.142 72.1903C484.709 73.5007 482.724 75.5397 481.187 78.3072C479.654 81.0523 478.615 84.3604 478.071 88.2314Z" fill="#222222" fill-opacity="0.56"/>
<path d="M829.411 105.037L820.226 33.2408L828.733 34.4368L835.265 92.778L835.941 92.8729L858.576 38.6322L868.028 39.9611L874.831 98.3402L875.506 98.4351L897.871 44.1565L906.378 45.3525L877.754 111.833L869.111 110.618L861.598 53.3783L861.058 53.3024L838.053 106.252L829.411 105.037ZM922.771 119.263C917.775 118.561 913.62 116.852 910.307 114.137C907.019 111.403 904.676 107.906 903.278 103.648C901.906 99.3695 901.593 94.5747 902.34 89.2633C903.086 83.9519 904.712 79.4067 907.217 75.6277C909.748 71.8294 912.917 69.0389 916.725 67.2562C920.559 65.4542 924.816 64.8822 929.498 65.5403C932.198 65.92 934.802 66.745 937.309 68.0154C939.815 69.2859 942.007 71.0857 943.882 73.415C945.761 75.7218 947.11 78.6195 947.927 82.1082C948.745 85.597 948.814 89.7607 948.134 94.5995L947.659 97.9754L907.688 92.3562L908.657 85.4694L940.525 89.9495C940.936 87.0238 940.718 84.3308 939.871 81.8707C939.046 79.4137 937.657 77.371 935.706 75.7426C933.777 74.1173 931.372 73.1022 928.491 72.6972C925.318 72.2511 922.462 72.6528 919.922 73.9023C917.408 75.1325 915.357 76.9097 913.768 79.2338C912.179 81.558 911.183 84.1492 910.781 87.0074L910.136 91.5986C909.585 95.5147 909.794 98.9292 910.761 101.842C911.755 104.736 913.367 107.063 915.598 108.822C917.833 110.559 920.559 111.654 923.777 112.107C925.87 112.401 927.802 112.374 929.572 112.026C931.368 111.659 932.969 110.966 934.374 109.947C935.783 108.906 936.952 107.532 937.88 105.827L945.273 109.069C944.096 111.566 942.412 113.67 940.22 115.382C938.032 117.071 935.454 118.269 932.485 118.977C929.52 119.661 926.282 119.757 922.771 119.263ZM957.594 123.057L967.313 53.9189L975.28 55.0389L971.692 80.5607L972.368 80.6556C973.079 79.8376 974.051 78.8037 975.282 77.5539C976.539 76.2847 978.225 75.2364 980.338 74.4089C982.476 73.562 985.234 73.3758 988.61 73.8504C992.976 74.4642 996.671 76.0968 999.695 78.7482C1002.72 81.3995 1004.88 84.8595 1006.19 89.1282C1007.49 93.3969 1007.76 98.2544 1007 103.701C1006.22 109.192 1004.62 113.821 1002.19 117.587C999.756 121.33 996.731 124.072 993.113 125.813C989.497 127.531 985.529 128.086 981.208 127.479C977.877 127.01 975.288 126.084 973.44 124.7C971.595 123.293 970.232 121.804 969.351 120.235C968.473 118.642 967.808 117.333 967.356 116.305L966.411 116.172L965.291 124.139L957.594 123.057ZM969.071 98.2314C968.52 102.147 968.608 105.683 969.335 108.837C970.065 111.97 971.415 114.535 973.383 116.533C975.354 118.508 977.938 119.721 981.134 120.17C984.465 120.638 987.368 120.151 989.842 118.709C992.343 117.247 994.366 115.099 995.912 112.264C997.484 109.409 998.53 106.137 999.048 102.446C999.561 98.7998 999.46 95.4348 998.746 92.3509C998.058 89.2476 996.709 86.6825 994.699 84.6556C992.714 82.6094 990.034 81.349 986.658 80.8744C983.417 80.4188 980.579 80.8575 978.142 82.1903C975.709 83.5007 973.724 85.5397 972.187 88.3072C970.654 91.0523 969.615 94.3604 969.071 98.2314Z" fill="#222222" fill-opacity="0.56"/>
<path d="M1167.41 557.037L1158.23 485.241L1166.73 486.437L1173.27 544.778L1173.94 544.873L1196.58 490.632L1206.03 491.961L1212.83 550.34L1213.51 550.435L1235.87 496.156L1244.38 497.352L1215.75 563.833L1207.11 562.618L1199.6 505.378L1199.06 505.302L1176.05 558.252L1167.41 557.037ZM1260.77 571.263C1255.77 570.561 1251.62 568.852 1248.31 566.137C1245.02 563.403 1242.68 559.906 1241.28 555.648C1239.91 551.369 1239.59 546.575 1240.34 541.263C1241.09 535.952 1242.71 531.407 1245.22 527.628C1247.75 523.829 1250.92 521.039 1254.73 519.256C1258.56 517.454 1262.82 516.882 1267.5 517.54C1270.2 517.92 1272.8 518.745 1275.31 520.015C1277.82 521.286 1280.01 523.086 1281.88 525.415C1283.76 527.722 1285.11 530.62 1285.93 534.108C1286.75 537.597 1286.81 541.761 1286.13 546.599L1285.66 549.975L1245.69 544.356L1246.66 537.469L1278.53 541.95C1278.94 539.024 1278.72 536.331 1277.87 533.871C1277.05 531.414 1275.66 529.371 1273.71 527.743C1271.78 526.117 1269.37 525.102 1266.49 524.697C1263.32 524.251 1260.46 524.653 1257.92 525.902C1255.41 527.133 1253.36 528.91 1251.77 531.234C1250.18 533.558 1249.18 536.149 1248.78 539.007L1248.14 543.599C1247.59 547.515 1247.79 550.929 1248.76 553.842C1249.75 556.736 1251.37 559.063 1253.6 560.822C1255.83 562.559 1258.56 563.654 1261.78 564.107C1263.87 564.401 1265.8 564.374 1267.57 564.026C1269.37 563.659 1270.97 562.966 1272.37 561.947C1273.78 560.906 1274.95 559.532 1275.88 557.827L1283.27 561.069C1282.1 563.566 1280.41 565.67 1278.22 567.382C1276.03 569.071 1273.45 570.269 1270.49 570.977C1267.52 571.661 1264.28 571.757 1260.77 571.263ZM1295.59 575.057L1305.31 505.919L1313.28 507.039L1309.69 532.561L1310.37 532.656C1311.08 531.838 1312.05 530.804 1313.28 529.554C1314.54 528.285 1316.22 527.236 1318.34 526.409C1320.48 525.562 1323.23 525.376 1326.61 525.85C1330.98 526.464 1334.67 528.097 1337.69 530.748C1340.72 533.4 1342.88 536.86 1344.19 541.128C1345.49 545.397 1345.76 550.254 1345 555.701C1344.22 561.192 1342.62 565.821 1340.19 569.587C1337.76 573.33 1334.73 576.072 1331.11 577.813C1327.5 579.531 1323.53 580.086 1319.21 579.479C1315.88 579.01 1313.29 578.084 1311.44 576.7C1309.59 575.293 1308.23 573.804 1307.35 572.235C1306.47 570.642 1305.81 569.333 1305.36 568.305L1304.41 568.172L1303.29 576.139L1295.59 575.057ZM1307.07 550.231C1306.52 554.147 1306.61 557.683 1307.34 560.837C1308.07 563.97 1309.41 566.535 1311.38 568.533C1313.35 570.508 1315.94 571.721 1319.13 572.17C1322.46 572.638 1325.37 572.151 1327.84 570.709C1330.34 569.247 1332.37 567.099 1333.91 564.264C1335.48 561.409 1336.53 558.137 1337.05 554.446C1337.56 550.8 1337.46 547.435 1336.75 544.351C1336.06 541.248 1334.71 538.682 1332.7 536.656C1330.71 534.609 1328.03 533.349 1324.66 532.874C1321.42 532.419 1318.58 532.857 1316.14 534.19C1313.71 535.501 1311.72 537.54 1310.19 540.307C1308.65 543.052 1307.61 546.36 1307.07 550.231Z" fill="#222222" fill-opacity="0.56"/>
<path d="M1019.41 748.037L1010.23 676.241L1018.73 677.437L1025.27 735.778L1025.94 735.873L1048.58 681.632L1058.03 682.961L1064.83 741.34L1065.51 741.435L1087.87 687.156L1096.38 688.352L1067.75 754.833L1059.11 753.618L1051.6 696.378L1051.06 696.302L1028.05 749.252L1019.41 748.037ZM1112.77 762.263C1107.77 761.561 1103.62 759.852 1100.31 757.137C1097.02 754.403 1094.68 750.906 1093.28 746.648C1091.91 742.369 1091.59 737.575 1092.34 732.263C1093.09 726.952 1094.71 722.407 1097.22 718.628C1099.75 714.829 1102.92 712.039 1106.73 710.256C1110.56 708.454 1114.82 707.882 1119.5 708.54C1122.2 708.92 1124.8 709.745 1127.31 711.015C1129.82 712.286 1132.01 714.086 1133.88 716.415C1135.76 718.722 1137.11 721.62 1137.93 725.108C1138.75 728.597 1138.81 732.761 1138.13 737.599L1137.66 740.975L1097.69 735.356L1098.66 728.469L1130.53 732.95C1130.94 730.024 1130.72 727.331 1129.87 724.871C1129.05 722.414 1127.66 720.371 1125.71 718.743C1123.78 717.117 1121.37 716.102 1118.49 715.697C1115.32 715.251 1112.46 715.653 1109.92 716.902C1107.41 718.133 1105.36 719.91 1103.77 722.234C1102.18 724.558 1101.18 727.149 1100.78 730.007L1100.14 734.599C1099.59 738.515 1099.79 741.929 1100.76 744.842C1101.75 747.736 1103.37 750.063 1105.6 751.822C1107.83 753.559 1110.56 754.654 1113.78 755.107C1115.87 755.401 1117.8 755.374 1119.57 755.026C1121.37 754.659 1122.97 753.966 1124.37 752.947C1125.78 751.906 1126.95 750.532 1127.88 748.827L1135.27 752.069C1134.1 754.566 1132.41 756.67 1130.22 758.382C1128.03 760.071 1125.45 761.269 1122.49 761.977C1119.52 762.661 1116.28 762.757 1112.77 762.263ZM1147.59 766.057L1157.31 696.919L1165.28 698.039L1161.69 723.561L1162.37 723.656C1163.08 722.838 1164.05 721.804 1165.28 720.554C1166.54 719.285 1168.22 718.236 1170.34 717.409C1172.48 716.562 1175.23 716.376 1178.61 716.85C1182.98 717.464 1186.67 719.097 1189.69 721.748C1192.72 724.4 1194.88 727.86 1196.19 732.128C1197.49 736.397 1197.76 741.254 1197 746.701C1196.22 752.192 1194.62 756.821 1192.19 760.587C1189.76 764.33 1186.73 767.072 1183.11 768.813C1179.5 770.531 1175.53 771.086 1171.21 770.479C1167.88 770.01 1165.29 769.084 1163.44 767.7C1161.59 766.293 1160.23 764.804 1159.35 763.235C1158.47 761.642 1157.81 760.333 1157.36 759.305L1156.41 759.172L1155.29 767.139L1147.59 766.057ZM1159.07 741.231C1158.52 745.147 1158.61 748.683 1159.34 751.837C1160.07 754.97 1161.41 757.535 1163.38 759.533C1165.35 761.508 1167.94 762.721 1171.13 763.17C1174.46 763.638 1177.37 763.151 1179.84 761.709C1182.34 760.247 1184.37 758.099 1185.91 755.264C1187.48 752.409 1188.53 749.137 1189.05 745.446C1189.56 741.8 1189.46 738.435 1188.75 735.351C1188.06 732.248 1186.71 729.682 1184.7 727.656C1182.71 725.609 1180.03 724.349 1176.66 723.874C1173.42 723.419 1170.58 723.857 1168.14 725.19C1165.71 726.501 1163.72 728.54 1162.19 731.307C1160.65 734.052 1159.61 737.36 1159.07 741.231Z" fill="#222222" fill-opacity="0.56"/>
<path d="M24.4109 700.037L15.2255 628.241L23.7328 629.437L30.2654 687.778L30.9406 687.873L53.5757 633.632L63.0282 634.961L69.8309 693.34L70.5061 693.435L92.8711 639.156L101.378 640.352L72.7537 706.833L64.1114 705.618L56.5977 648.378L56.0576 648.302L33.0532 701.252L24.4109 700.037ZM117.771 714.263C112.775 713.561 108.62 711.852 105.307 709.137C102.019 706.403 99.6761 702.906 98.2781 698.648C96.9058 694.369 96.593 689.575 97.3397 684.263C98.0864 678.952 99.7122 674.407 102.217 670.628C104.748 666.829 107.917 664.039 111.725 662.256C115.559 660.454 119.816 659.882 124.498 660.54C127.198 660.92 129.802 661.745 132.309 663.015C134.815 664.286 137.007 666.086 138.882 668.415C140.761 670.722 142.11 673.62 142.927 677.108C143.745 680.597 143.814 684.761 143.134 689.599L142.659 692.975L102.688 687.356L103.657 680.469L135.525 684.95C135.936 682.024 135.718 679.331 134.871 676.871C134.046 674.414 132.657 672.371 130.706 670.743C128.777 669.117 126.372 668.102 123.491 667.697C120.318 667.251 117.462 667.653 114.922 668.902C112.408 670.133 110.357 671.91 108.768 674.234C107.179 676.558 106.183 679.149 105.781 682.007L105.136 686.599C104.585 690.515 104.794 693.929 105.761 696.842C106.755 699.736 108.367 702.063 110.598 703.822C112.833 705.559 115.559 706.654 118.777 707.107C120.87 707.401 122.802 707.374 124.572 707.026C126.368 706.659 127.969 705.966 129.374 704.947C130.783 703.906 131.952 702.532 132.88 700.827L140.273 704.069C139.096 706.566 137.412 708.67 135.22 710.382C133.032 712.071 130.454 713.269 127.485 713.977C124.52 714.661 121.282 714.757 117.771 714.263ZM152.594 718.057L162.313 648.919L170.28 650.039L166.692 675.561L167.368 675.656C168.079 674.838 169.051 673.804 170.282 672.554C171.539 671.285 173.225 670.236 175.338 669.409C177.476 668.562 180.234 668.376 183.61 668.85C187.976 669.464 191.671 671.097 194.695 673.748C197.719 676.4 199.883 679.86 201.188 684.128C202.493 688.397 202.762 693.254 201.997 698.701C201.225 704.192 199.621 708.821 197.187 712.587C194.756 716.33 191.731 719.072 188.113 720.813C184.497 722.531 180.529 723.086 176.208 722.479C172.877 722.01 170.288 721.084 168.44 719.7C166.595 718.293 165.232 716.804 164.351 715.235C163.473 713.642 162.808 712.333 162.356 711.305L161.411 711.172L160.291 719.139L152.594 718.057ZM164.071 693.231C163.52 697.147 163.608 700.683 164.335 703.837C165.065 706.97 166.415 709.535 168.383 711.533C170.354 713.508 172.938 714.721 176.134 715.17C179.465 715.638 182.368 715.151 184.842 713.709C187.343 712.247 189.366 710.099 190.912 707.264C192.484 704.409 193.53 701.137 194.048 697.446C194.561 693.8 194.46 690.435 193.746 687.351C193.058 684.248 191.709 681.682 189.699 679.656C187.714 677.609 185.034 676.349 181.658 675.874C178.417 675.419 175.579 675.857 173.142 677.19C170.709 678.501 168.724 680.54 167.187 683.307C165.654 686.052 164.615 689.36 164.071 693.231Z" fill="#222222" fill-opacity="0.56"/>
</svg>
